<?xml version="1.0" encoding="utf-8"?>
<!-- Generator: Adobe Illustrator 21.0.2, SVG Export Plug-In . SVG Version: 6.00 Build 0)  -->
<svg version="1.1" id="Layer_1" xmlns="http://www.w3.org/2000/svg" xmlns:xlink="http://www.w3.org/1999/xlink" x="0px" y="0px"
	 viewBox="0 0 600 388" style="enable-background:new 0 0 600 388;" xml:space="preserve">
<style type="text/css">
	.st0{fill:#699F63;}
	.st1{fill-rule:evenodd;clip-rule:evenodd;fill:#333333;}
	.st2{fill-rule:evenodd;clip-rule:evenodd;fill:#699F63;}
	.st3{clip-path:url(#XMLID_3_);}
	.st4{fill:none;}
	.st5{fill:url(#SVGID_1_);}
	.st6{fill:url(#SVGID_2_);}
	.st7{fill:url(#SVGID_3_);}
	.st8{fill:url(#SVGID_4_);}
	.st9{fill:url(#SVGID_5_);}
	.st10{fill:url(#SVGID_6_);}
</style>
<g>
	<path class="st0" d="M297,327.9c-1.5,0-2.9-0.4-4.2-1.1l-13.3-7.9c-2-1.1-1-1.5-0.4-1.7c2.7-0.9,3.2-1.1,6-2.7
		c0.3-0.2,0.7-0.1,1,0.1l10.2,6.1c0.4,0.2,0.9,0.2,1.2,0l39.9-23.1c0.4-0.2,0.6-0.6,0.6-1.1v-46.1c0-0.5-0.2-0.9-0.6-1.1l-39.9-23
		c-0.4-0.2-0.9-0.2-1.2,0l-39.9,23c-0.4,0.2-0.6,0.7-0.6,1.1v46.1c0,0.4,0.2,0.9,0.6,1.1l10.9,6.3c5.9,3,9.6-0.5,9.6-4v-45.5
		c0-0.6,0.5-1.2,1.2-1.2h5.1c0.6,0,1.2,0.5,1.2,1.2v45.5c0,7.9-4.3,12.5-11.8,12.5c-2.3,0-4.1,0-9.2-2.5l-10.5-6
		c-2.6-1.5-4.2-4.3-4.2-7.3v-46.1c0-3,1.6-5.8,4.2-7.3l39.9-23.1c2.5-1.4,5.9-1.4,8.4,0l39.9,23.1c2.6,1.5,4.2,4.3,4.2,7.3v46.1
		c0,3-1.6,5.8-4.2,7.3l-39.9,23.1C299.9,327.6,298.4,327.9,297,327.9z"/>
	<path class="st0" d="M309.3,296.2c-17.5,0-21.1-8-21.1-14.8c0-0.6,0.5-1.2,1.2-1.2h5.2c0.6,0,1.1,0.4,1.1,1
		c0.8,5.3,3.1,7.9,13.7,7.9c8.4,0,12-1.9,12-6.4c0-2.6-1-4.5-14.1-5.8c-10.9-1.1-17.7-3.5-17.7-12.2c0-8.1,6.8-12.9,18.2-12.9
		c12.8,0,19.1,4.4,19.9,14c0,0.3-0.1,0.6-0.3,0.9c-0.2,0.2-0.5,0.4-0.8,0.4h-5.2c-0.5,0-1-0.4-1.1-0.9c-1.2-5.5-4.3-7.3-12.5-7.3
		c-9.2,0-10.3,3.2-10.3,5.6c0,2.9,1.3,3.8,13.7,5.4c12.3,1.6,18.1,3.9,18.1,12.5C329.2,291.2,322,296.2,309.3,296.2z"/>
</g>
<g>
	<path class="st0" d="M366.9,247.8c0,4.2-3.5,7.7-7.7,7.7c-4.2,0-7.7-3.4-7.7-7.7c0-4.4,3.6-7.7,7.7-7.7
		C363.4,240.1,366.9,243.5,366.9,247.8z M352.7,247.8c0,3.6,2.9,6.5,6.4,6.5c3.6,0,6.5-3,6.5-6.5c0-3.6-2.9-6.4-6.5-6.4
		C355.7,241.4,352.7,244.2,352.7,247.8z M356.3,243.5h3c1,0,3,0,3,2.3c0,1.6-1,1.9-1.6,2.1c1.2,0.1,1.3,0.9,1.4,2
		c0.1,0.7,0.2,1.9,0.4,2.3h-1.8c0-0.4-0.3-2.6-0.3-2.7c-0.1-0.5-0.3-0.7-0.9-0.7H358v3.5h-1.7V243.5z M357.9,247.3h1.3
		c1.1,0,1.3-0.8,1.3-1.2c0-1.2-0.8-1.2-1.3-1.2h-1.4V247.3z"/>
</g>
<path class="st1" d="M173.2,147.6c0-1.8-1-3.5-2.6-4.4l-42.4-24.4c-0.7-0.4-1.5-0.6-2.3-0.7c-0.1,0-0.4,0-0.4,0
	c-0.8,0-1.6,0.3-2.3,0.7l-42.4,24.4c-1.6,0.9-2.6,2.6-2.6,4.4l0.1,65.6c0,0.9,0.5,1.8,1.3,2.2c0.8,0.5,1.8,0.5,2.5,0l25.2-14.4
	c1.6-0.9,2.6-2.6,2.6-4.4v-30.7c0-1.8,1-3.5,2.6-4.4l10.7-6.2c0.8-0.5,1.7-0.7,2.6-0.7c0.9,0,1.8,0.2,2.5,0.7l10.7,6.2
	c1.6,0.9,2.6,2.6,2.6,4.4v30.7c0,1.8,1,3.5,2.6,4.4l25.2,14.4c0.8,0.5,1.8,0.5,2.6,0c0.8-0.4,1.3-1.3,1.3-2.2L173.2,147.6z"/>
<path class="st1" d="M377,57.3c-0.8-0.4-1.8-0.4-2.5,0c-0.8,0.5-1.3,1.3-1.3,2.2v65c0,0.6-0.3,1.2-0.9,1.6c-0.6,0.3-1.2,0.3-1.8,0
	l-10.6-6.1c-1.6-0.9-3.5-0.9-5.1,0l-42.4,24.5c-1.6,0.9-2.6,2.6-2.6,4.4v48.9c0,1.8,1,3.5,2.6,4.4l42.4,24.5c1.6,0.9,3.5,0.9,5.1,0
	l42.4-24.5c1.6-0.9,2.6-2.6,2.6-4.4V75.9c0-1.9-1-3.6-2.6-4.5L377,57.3z M373.1,181.7c0,0.5-0.2,0.9-0.6,1.1l-14.5,8.4
	c-0.4,0.2-0.9,0.2-1.3,0l-14.5-8.4c-0.4-0.2-0.6-0.7-0.6-1.1v-16.8c0-0.5,0.2-0.9,0.6-1.1l14.5-8.4c0.4-0.2,0.9-0.2,1.3,0l14.5,8.4
	c0.4,0.2,0.6,0.7,0.6,1.1V181.7z"/>
<g>
	<path class="st1" d="M518.1,164.5c1.6-0.9,2.5-2.6,2.5-4.4v-11.9c0-1.8-1-3.5-2.5-4.4L476,119.4c-1.6-0.9-3.5-0.9-5.1,0l-42.4,24.5
		c-1.6,0.9-2.6,2.6-2.6,4.4v48.9c0,1.8,1,3.5,2.6,4.4l42.1,24c1.6,0.9,3.5,0.9,5,0l25.5-14.2c0.8-0.4,1.3-1.3,1.3-2.2
		c0-0.9-0.5-1.8-1.3-2.2l-42.6-24.5c-0.8-0.5-1.3-1.3-1.3-2.2V165c0-0.9,0.5-1.8,1.3-2.2l13.3-7.6c0.8-0.5,1.8-0.5,2.6,0l13.3,7.6
		c0.8,0.5,1.3,1.3,1.3,2.2V177c0,0.9,0.5,1.8,1.3,2.2c0.8,0.5,1.8,0.5,2.6,0L518.1,164.5z"/>
	<path class="st2" d="M472.8,162.2c0.3-0.2,0.7-0.2,1,0l8.1,4.7c0.3,0.2,0.5,0.5,0.5,0.9v9.4c0,0.4-0.2,0.7-0.5,0.9l-8.1,4.7
		c-0.3,0.2-0.7,0.2-1,0l-8.1-4.7c-0.3-0.2-0.5-0.5-0.5-0.9v-9.4c0-0.4,0.2-0.7,0.5-0.9L472.8,162.2z"/>
</g>
<g>
	<defs>
		<path id="XMLID_143_" d="M244.1,119.6c-1.6-0.9-3.5-0.9-5.1,0l-42.1,24.3c-1.6,0.9-2.5,2.6-2.5,4.4V197c0,1.8,1,3.5,2.5,4.4
			l42.1,24.3c1.6,0.9,3.5,0.9,5.1,0l42.1-24.3c1.6-0.9,2.5-2.6,2.5-4.4v-48.7c0-1.8-1-3.5-2.5-4.4L244.1,119.6z"/>
	</defs>
	<linearGradient id="XMLID_2_" gradientUnits="userSpaceOnUse" x1="258.7017" y1="137.7146" x2="220.6368" y2="215.3669">
		<stop  offset="0" style="stop-color:#41873F"/>
		<stop  offset="0.3288" style="stop-color:#418B3D"/>
		<stop  offset="0.6352" style="stop-color:#419637"/>
		<stop  offset="0.9319" style="stop-color:#3FA92D"/>
		<stop  offset="1" style="stop-color:#3FAE2A"/>
	</linearGradient>
	<use xlink:href="#XMLID_143_"  style="overflow:visible;fill-rule:evenodd;clip-rule:evenodd;fill:url(#XMLID_2_);"/>
	<clipPath id="XMLID_3_">
		<use xlink:href="#XMLID_143_"  style="overflow:visible;"/>
	</clipPath>
	<g class="st3">
		<path class="st4" d="M238.9,119.6l-42.2,24.3c-1.6,0.9-2.7,2.6-2.7,4.4V197c0,1.2,0.5,2.3,1.3,3.2l47.4-81.2
			C241.5,118.8,240.1,118.9,238.9,119.6z"/>
		<path class="st4" d="M243,226.2c0.4-0.1,0.8-0.3,1.2-0.5l42.2-24.3c1.6-0.9,2.6-2.6,2.6-4.4v-48.7c0-1.3-0.6-2.6-1.5-3.5
			L243,226.2z"/>
		<linearGradient id="SVGID_1_" gradientUnits="userSpaceOnUse" x1="235.1577" y1="178.3534" x2="341.9649" y2="99.4385">
			<stop  offset="0.1376" style="stop-color:#41873F"/>
			<stop  offset="0.4032" style="stop-color:#54A044"/>
			<stop  offset="0.7136" style="stop-color:#66B848"/>
			<stop  offset="0.9081" style="stop-color:#6CC04A"/>
		</linearGradient>
		<path class="st5" d="M286.3,143.9l-42.3-24.3c-0.4-0.2-0.9-0.4-1.3-0.5l-47.4,81.2c0.4,0.5,0.9,0.9,1.4,1.2l42.3,24.3
			c1.2,0.7,2.6,0.9,3.9,0.5l44.5-81.4C287.1,144.5,286.7,144.2,286.3,143.9z"/>
	</g>
	<g class="st3">
		<path class="st4" d="M289,197v-48.7c0-1.8-1.1-3.5-2.7-4.4l-42.3-24.3c-0.5-0.3-1-0.5-1.6-0.6l46.3,79.1
			C288.9,197.8,289,197.4,289,197z"/>
		<path class="st4" d="M196.7,143.9c-1.6,0.9-2.7,2.6-2.7,4.4V197c0,1.8,1.2,3.5,2.7,4.4l42.3,24.3c1,0.6,2.1,0.8,3.3,0.6L197,143.8
			L196.7,143.9z"/>
		<linearGradient id="SVGID_2_" gradientUnits="userSpaceOnUse" x1="192.8623" y1="110.8343" x2="290.2793" y2="110.8343">
			<stop  offset="9.191646e-02" style="stop-color:#6CC04A"/>
			<stop  offset="0.2864" style="stop-color:#66B848"/>
			<stop  offset="0.5968" style="stop-color:#54A044"/>
			<stop  offset="0.8624" style="stop-color:#41873F"/>
		</linearGradient>
		<polygon class="st6" points="237.6,110.7 237,111 237.8,111 		"/>
		<linearGradient id="SVGID_3_" gradientUnits="userSpaceOnUse" x1="192.8623" y1="172.6515" x2="290.2793" y2="172.6515">
			<stop  offset="9.191646e-02" style="stop-color:#6CC04A"/>
			<stop  offset="0.2864" style="stop-color:#66B848"/>
			<stop  offset="0.5968" style="stop-color:#54A044"/>
			<stop  offset="0.8624" style="stop-color:#41873F"/>
		</linearGradient>
		<path class="st7" d="M286.4,201.4c1.2-0.7,2.1-1.9,2.5-3.2L242.5,119c-1.2-0.2-2.5-0.1-3.6,0.6l-42,24.2l45.3,82.6
			c0.6-0.1,1.3-0.3,1.9-0.6L286.4,201.4z"/>
		<linearGradient id="SVGID_4_" gradientUnits="userSpaceOnUse" x1="192.8623" y1="200.4621" x2="290.2793" y2="200.4621">
			<stop  offset="9.191646e-02" style="stop-color:#6CC04A"/>
			<stop  offset="0.2864" style="stop-color:#66B848"/>
			<stop  offset="0.5968" style="stop-color:#54A044"/>
			<stop  offset="0.8624" style="stop-color:#41873F"/>
		</linearGradient>
		<polygon class="st8" points="290.3,200.6 290,200.1 290,200.8 		"/>
		<linearGradient id="SVGID_5_" gradientUnits="userSpaceOnUse" x1="192.8623" y1="213.0318" x2="290.2793" y2="213.0318">
			<stop  offset="9.191646e-02" style="stop-color:#6CC04A"/>
			<stop  offset="0.2864" style="stop-color:#66B848"/>
			<stop  offset="0.5968" style="stop-color:#54A044"/>
			<stop  offset="0.8624" style="stop-color:#41873F"/>
		</linearGradient>
		<path class="st9" d="M286.4,201.4l-42.2,24.3c-0.6,0.3-1.2,0.5-1.9,0.6l0.8,1.5l46.8-27.1v-0.6l-1.2-2
			C288.5,199.5,287.6,200.7,286.4,201.4z"/>
		<linearGradient id="SVGID_6_" gradientUnits="userSpaceOnUse" x1="304.4718" y1="135.4124" x2="244.3912" y2="257.9768">
			<stop  offset="0" style="stop-color:#41873F"/>
			<stop  offset="0.3288" style="stop-color:#418B3D"/>
			<stop  offset="0.6352" style="stop-color:#419637"/>
			<stop  offset="0.9319" style="stop-color:#3FA92D"/>
			<stop  offset="1" style="stop-color:#3FAE2A"/>
		</linearGradient>
		<path class="st10" d="M286.4,201.4l-42.2,24.3c-0.6,0.3-1.2,0.5-1.9,0.6l0.8,1.5l46.8-27.1v-0.6l-1.2-2
			C288.5,199.5,287.6,200.7,286.4,201.4z"/>
	</g>
</g>
</svg>
