<?xml version="1.0" encoding="utf-8"?>
<!-- Generator: Adobe Illustrator 21.0.2, SVG Export Plug-In . SVG Version: 6.00 Build 0)  -->
<svg version="1.1"
	 id="svg2" inkscape:version="0.43" sodipodi:docbase="/home/sdeibel" sodipodi:docname="logo-python-inkscape.svg" sodipodi:version="0.32" xmlns:cc="http://web.resource.org/cc/" xmlns:dc="http://purl.org/dc/elements/1.1/" xmlns:inkscape="http://www.inkscape.org/namespaces/inkscape" xmlns:rdf="http://www.w3.org/1999/02/22-rdf-syntax-ns#" xmlns:sodipodi="http://inkscape.sourceforge.net/DTD/sodipodi-0.dtd" xmlns:svg="http://www.w3.org/2000/svg"
	 xmlns="http://www.w3.org/2000/svg" xmlns:xlink="http://www.w3.org/1999/xlink" x="0px" y="0px" viewBox="0 0 641 259.1"
	 style="enable-background:new 0 0 641 259.1;" xml:space="preserve">
<style type="text/css">
	.st0{fill:#646464;}
	.st1{fill:url(#path1948_1_);}
	.st2{fill:url(#path1950_1_);}
	.st3{opacity:0.4438;fill:url(#path1894_1_);enable-background:new    ;}
</style>
<sodipodi:namedview  bordercolor="#666666" borderopacity="1.0" gridtolerance="10.0" guidetolerance="10.0" height="40mm" id="base" inkscape:current-layer="svg2" inkscape:cx="250.73166" inkscape:cy="67.50975" inkscape:pageopacity="0.0" inkscape:pageshadow="2" inkscape:window-height="882" inkscape:window-width="1233" inkscape:window-x="0" inkscape:window-y="6" inkscape:zoom="2.1461642" objecttolerance="10.0" pagecolor="#ffffff" units="mm" width="210mm">
	</sodipodi:namedview>
<path id="path46" class="st0" d="M262.6,120.9c0-14.6-4.2-22-12.5-22.4c-3.3-0.2-6.5,0.4-9.7,1.6c-2.5,0.9-4.2,1.8-5.1,2.7v34.8
	c5.3,3.3,10,4.9,14.1,4.6C258.3,141.6,262.6,134.5,262.6,120.9z M272.9,121.5c0,7.4-1.7,13.5-5.2,18.4c-3.9,5.5-9.3,8.4-16.2,8.5
	c-5.2,0.2-10.5-1.5-16.1-4.9v31.6l-8.9-3.2v-70.1c1.5-1.8,3.3-3.3,5.6-4.6c5.3-3.1,11.7-4.7,19.3-4.8l0.1,0.1
	c6.9-0.1,12.3,2.8,16,8.5C271.1,106.5,272.9,113.2,272.9,121.5z"/>
<path id="path48" class="st0" d="M327.3,142.3c0,9.9-1,16.8-3,20.6c-2,3.8-5.8,6.9-11.4,9.1c-4.6,1.8-9.5,2.8-14.8,2.9l-1.5-5.6
	c5.4-0.7,9.2-1.5,11.3-2.2c4.3-1.5,7.3-3.7,8.9-6.7c1.3-2.4,1.9-7.1,1.9-14v-2.3c-6.1,2.8-12.5,4.1-19.2,4.1
	c-4.4,0-8.3-1.4-11.6-4.1c-3.7-3-5.6-6.8-5.6-11.5V95.6l8.9-3.1v37.3c0,4,1.3,7.1,3.9,9.2c2.6,2.2,5.9,3.2,10,3.1
	c4.1-0.1,8.5-1.7,13.1-4.8V93.9h8.9V142.3z"/>
<path id="path50" class="st0" d="M362.1,148c-1.1,0.1-2,0.1-2.9,0.1c-5,0-9-1.2-11.8-3.6c-2.8-2.4-4.2-5.7-4.2-10V99.5h-6.1v-5.6
	h6.1V79l8.9-3.2v18.1h10v5.6h-10v34.8c0,3.3,0.9,5.7,2.7,7.1c1.5,1.1,4,1.8,7.3,2V148z"/>
<path id="path52" class="st0" d="M416,147.3h-8.9v-34.4c0-3.5-0.8-6.5-2.4-9c-1.9-2.8-4.5-4.3-7.8-4.3c-4.1,0-9.2,2.2-15.3,6.5v41.2
	h-8.9V65.1l8.9-2.8v37.4c5.7-4.1,11.9-6.2,18.7-6.2c4.7,0,8.5,1.6,11.5,4.8c2.9,3.2,4.4,7.1,4.4,11.8V147.3L416,147.3z"/>
<path id="path54" class="st0" d="M463.4,119.5c0-5.6-1.1-10.2-3.2-13.9c-2.5-4.5-6.4-6.8-11.7-7c-9.8,0.6-14.6,7.6-14.6,21
	c0,6.2,1,11.3,3.1,15.4c2.6,5.3,6.5,7.8,11.8,7.8C458.5,142.7,463.4,134.9,463.4,119.5z M473.1,119.6c0,8-2,14.6-6.1,19.9
	c-4.5,5.9-10.7,8.9-18.5,8.9c-7.8,0-13.9-3-18.3-8.9c-4-5.3-6-11.9-6-19.9c0-7.5,2.2-13.8,6.5-18.9c4.6-5.4,10.5-8.2,17.9-8.2
	c7.4,0,13.4,2.7,18.1,8.2C471,105.8,473.1,112.1,473.1,119.6z"/>
<path id="path56" class="st0" d="M524.2,147.3h-8.9v-36.3c0-4-1.2-7.1-3.6-9.3c-2.4-2.2-5.6-3.3-9.6-3.2c-4.2,0.1-8.3,1.5-12.1,4.1
	v44.8h-8.9v-45.9c5.1-3.7,9.8-6.2,14.2-7.3c4.1-1.1,7.7-1.6,10.7-1.6c2.1,0,4.1,0.2,6,0.6c3.5,0.8,6.3,2.3,8.5,4.5
	c2.4,2.4,3.7,5.4,3.7,8.8V147.3z"/>
<linearGradient id="path1948_1_" gradientUnits="userSpaceOnUse" x1="88.9141" y1="58.723" x2="197.9304" y2="-35.0709" gradientTransform="matrix(0.5625 0 0 -0.568 30.8465 101.9503)">
	<stop  offset="0" style="stop-color:#5A9FD4"/>
	<stop  offset="1" style="stop-color:#306998"/>
</linearGradient>
<path id="path1948" class="st1" d="M138.5,65.4c-4.6,0-9,0.4-12.8,1.1c-11.3,2-13.4,6.2-13.4,13.9v10.2h26.8v3.4h-26.8h-10.1
	c-7.8,0-14.6,4.7-16.8,13.6c-2.5,10.2-2.6,16.6,0,27.3c1.9,7.9,6.5,13.6,14.2,13.6h9.2v-12.2c0-8.8,7.7-16.7,16.8-16.7h26.8
	c7.5,0,13.4-6.1,13.4-13.6V80.4c0-7.3-6.1-12.7-13.4-13.9C147.9,65.7,143.1,65.4,138.5,65.4z M124,73.6c2.8,0,5,2.3,5,5.1
	c0,2.8-2.3,5.1-5,5.1c-2.8,0-5-2.3-5-5.1C119,75.9,121.2,73.6,124,73.6z"/>
<linearGradient id="path1950_1_" gradientUnits="userSpaceOnUse" x1="240.0768" y1="-91.8388" x2="201.1472" y2="-36.7601" gradientTransform="matrix(0.5625 0 0 -0.568 30.8465 101.9503)">
	<stop  offset="0" style="stop-color:#FFD43B"/>
	<stop  offset="1" style="stop-color:#FFE873"/>
</linearGradient>
<path id="path1950" class="st2" d="M169.2,94.1V106c0,9.2-7.8,17-16.8,17h-26.8c-7.3,0-13.4,6.3-13.4,13.6v25.5
	c0,7.3,6.3,11.5,13.4,13.6c8.5,2.5,16.6,2.9,26.8,0c6.8-2,13.4-5.9,13.4-13.6v-10.2h-26.8v-3.4h26.8h13.4c7.8,0,10.7-5.4,13.4-13.6
	c2.8-8.4,2.7-16.5,0-27.3c-1.9-7.8-5.6-13.6-13.4-13.6H169.2z M154.2,158.7c2.8,0,5,2.3,5,5.1c0,2.8-2.3,5.1-5,5.1
	c-2.8,0-5-2.3-5-5.1C149.1,161,151.4,158.7,154.2,158.7z"/>
<path id="text3004" sodipodi:nodetypes="ccccccccccccccccccccccc" class="st0" d="M541.6,85.9h1.6v-9.8h3.7v-1.2h-9v1.2h3.7V85.9
	 M548.2,85.9h1.3V77l2.9,8.9h1.5l3-8.9v8.9h1.5v-11h-1.9l-3.3,9.4l-2.8-9.4h-2.2V85.9"/>
<radialGradient id="path1894_1_" cx="-350.7592" cy="178.9885" r="29.0369" gradientTransform="matrix(1.749057e-08 -0.2399 -1.0547 -3.791546e-07 328.1816 108.9343)" gradientUnits="userSpaceOnUse">
	<stop  offset="0" style="stop-color:#B8B8B8;stop-opacity:0.498"/>
	<stop  offset="1" style="stop-color:#7F7F7F;stop-opacity:0"/>
</radialGradient>
<path id="path1894" sodipodi:cx="61.518883" sodipodi:cy="132.28575" sodipodi:rx="48.948284" sodipodi:ry="8.6066771" sodipodi:type="arc" class="st3" d="
	M175.3,193.1c0,3.8-16.1,7-35.9,7s-35.9-3.1-35.9-7c0-3.8,16.1-7,35.9-7S175.3,189.2,175.3,193.1z"/>
</svg>
