<?xml version="1.0" encoding="utf-8"?>
<!-- Generator: Adobe Illustrator 21.0.2, SVG Export Plug-In . SVG Version: 6.00 Build 0)  -->
<svg version="1.1"
	 id="Layer_1" inkscape:version="0.48.0 r9654" sodipodi:docname="Logo-Ruby.svg" xmlns:cc="http://creativecommons.org/ns#" xmlns:dc="http://purl.org/dc/elements/1.1/" xmlns:inkscape="http://www.inkscape.org/namespaces/inkscape" xmlns:rdf="http://www.w3.org/1999/02/22-rdf-syntax-ns#" xmlns:sodipodi="http://sodipodi.sourceforge.net/DTD/sodipodi-0.dtd" xmlns:svg="http://www.w3.org/2000/svg"
	 xmlns="http://www.w3.org/2000/svg" xmlns:xlink="http://www.w3.org/1999/xlink" x="0px" y="0px" viewBox="0 0 546.1 341.6"
	 style="enable-background:new 0 0 546.1 341.6;" xml:space="preserve">
<style type="text/css">
	.st0{fill:url(#polygon3282_1_);}
	.st1{fill:url(#polygon3293_1_);}
	.st2{fill:url(#polygon3304_1_);}
	.st3{fill:url(#polygon3319_1_);}
	.st4{fill:url(#polygon3334_1_);}
	.st5{fill:url(#polygon3349_1_);}
	.st6{fill:url(#polygon3362_1_);}
	.st7{fill:url(#polygon3375_1_);}
	.st8{fill:#FFFFFF;}
	.st9{fill:url(#path3400_1_);}
	.st10{fill:url(#path3413_1_);}
	.st11{fill:url(#path3424_1_);}
	.st12{fill:url(#path3435_1_);}
	.st13{fill:#9E1209;}
	.st14{fill:url(#path3448_1_);}
	.st15{fill:url(#path3459_1_);}
	.st16{fill:url(#path3472_1_);}
	.st17{fill:url(#path3485_1_);}
</style>
<sodipodi:namedview  bordercolor="#666666" borderopacity="1" gridtolerance="10" guidetolerance="10" id="namedview3487" inkscape:current-layer="Layer_1" inkscape:cx="99.065005" inkscape:cy="98.790004" inkscape:pageopacity="0" inkscape:pageshadow="2" inkscape:window-height="1124" inkscape:window-maximized="0" inkscape:window-width="1036" inkscape:window-x="882" inkscape:window-y="24" inkscape:zoom="1.3412289" objecttolerance="10" pagecolor="#ffffff" showgrid="false">
	</sodipodi:namedview>
<linearGradient id="polygon3282_1_" gradientUnits="userSpaceOnUse" x1="348.0731" y1="56.4508" x2="306.2757" y2="130.2463" gradientTransform="matrix(1 0 0 -1 0 344)">
	<stop  offset="0" style="stop-color:#FB7655"/>
	<stop  offset="0" style="stop-color:#FB7655"/>
	<stop  offset="0.41" style="stop-color:#E42B1E"/>
	<stop  offset="0.99" style="stop-color:#990000"/>
	<stop  offset="1" style="stop-color:#990000"/>
</linearGradient>
<polygon id="polygon3282" class="st0" points="327.5,202.4 214.4,269.6 360.8,259.6 372.1,111.9 "/>
<linearGradient id="polygon3293_1_" gradientUnits="userSpaceOnUse" x1="368.8951" y1="118.4426" x2="315.0277" y2="154.5909" gradientTransform="matrix(1 0 0 -1 0 344)">
	<stop  offset="0" style="stop-color:#871101"/>
	<stop  offset="0" style="stop-color:#871101"/>
	<stop  offset="0.99" style="stop-color:#911209"/>
	<stop  offset="1" style="stop-color:#911209"/>
</linearGradient>
<polygon id="polygon3293" class="st1" points="361.1,259.5 348.5,172.6 314.2,217.9 "/>
<linearGradient id="polygon3304_1_" gradientUnits="userSpaceOnUse" x1="325.7954" y1="54.2148" x2="271.9297" y2="90.362" gradientTransform="matrix(1 0 0 -1 0 344)">
	<stop  offset="0" style="stop-color:#871101"/>
	<stop  offset="0" style="stop-color:#871101"/>
	<stop  offset="0.99" style="stop-color:#911209"/>
	<stop  offset="1" style="stop-color:#911209"/>
</linearGradient>
<polygon id="polygon3304" class="st2" points="361.3,259.5 269,252.3 214.9,269.4 "/>
<linearGradient id="polygon3319_1_" gradientUnits="userSpaceOnUse" x1="212.6962" y1="144.6094" x2="221.0468" y2="90.3386" gradientTransform="matrix(1 0 0 -1 0 344)">
	<stop  offset="0" style="stop-color:#FFFFFF"/>
	<stop  offset="0" style="stop-color:#FFFFFF"/>
	<stop  offset="0.23" style="stop-color:#E57252"/>
	<stop  offset="0.46" style="stop-color:#DE3B20"/>
	<stop  offset="0.99" style="stop-color:#A60003"/>
	<stop  offset="1" style="stop-color:#A60003"/>
</linearGradient>
<polygon id="polygon3319" class="st3" points="215,269.4 238,193.9 187.3,204.8 "/>
<linearGradient id="polygon3334_1_" gradientUnits="userSpaceOnUse" x1="270.133" y1="195.2847" x2="273.2098" y2="139.8979" gradientTransform="matrix(1 0 0 -1 0 344)">
	<stop  offset="0" style="stop-color:#FFFFFF"/>
	<stop  offset="0" style="stop-color:#FFFFFF"/>
	<stop  offset="0.23" style="stop-color:#E4714E"/>
	<stop  offset="0.56" style="stop-color:#BE1A0D"/>
	<stop  offset="0.99" style="stop-color:#A80D00"/>
	<stop  offset="1" style="stop-color:#A80D00"/>
</linearGradient>
<polygon id="polygon3334" class="st4" points="314.2,218.2 293,135.1 232.3,192 "/>
<linearGradient id="polygon3349_1_" gradientUnits="userSpaceOnUse" x1="321.1034" y1="246.4791" x2="330.3145" y2="206.7839" gradientTransform="matrix(1 0 0 -1 0 344)">
	<stop  offset="0" style="stop-color:#FFFFFF"/>
	<stop  offset="0" style="stop-color:#FFFFFF"/>
	<stop  offset="0.18" style="stop-color:#E46342"/>
	<stop  offset="0.4" style="stop-color:#C82410"/>
	<stop  offset="0.99" style="stop-color:#A80D00"/>
	<stop  offset="1" style="stop-color:#A80D00"/>
</linearGradient>
<polygon id="polygon3349" class="st5" points="367.3,136.3 310,89.5 294,141.1 "/>
<linearGradient id="polygon3362_1_" gradientUnits="userSpaceOnUse" x1="292.9763" y1="260.4581" x2="332.6688" y2="280.3044" gradientTransform="matrix(1 0 0 -1 0 344)">
	<stop  offset="0" style="stop-color:#FFFFFF"/>
	<stop  offset="0" style="stop-color:#FFFFFF"/>
	<stop  offset="0.54" style="stop-color:#C81F11"/>
	<stop  offset="0.99" style="stop-color:#BF0905"/>
	<stop  offset="1" style="stop-color:#BF0905"/>
</linearGradient>
<polygon id="polygon3362" class="st6" points="340.5,72.8 306.8,91.4 285.5,72.5 "/>
<linearGradient id="polygon3375_1_" gradientUnits="userSpaceOnUse" x1="177.9037" y1="158.4453" x2="181.1707" y2="125.7372" gradientTransform="matrix(1 0 0 -1 0 344)">
	<stop  offset="0" style="stop-color:#FFFFFF"/>
	<stop  offset="0" style="stop-color:#FFFFFF"/>
	<stop  offset="0.31" style="stop-color:#DE4024"/>
	<stop  offset="0.99" style="stop-color:#BF190B"/>
	<stop  offset="1" style="stop-color:#BF190B"/>
</linearGradient>
<polygon id="polygon3375" class="st7" points="174,230.1 188.1,204.3 176.7,173.6 "/>
<path id="path3377" inkscape:connector-curvature="0" class="st8" d="M175.9,172.6l11.5,32.6l50-11.2l57.1-53l16.1-51.1L285.2,72
	l-43.1,16.1c-13.6,12.6-39.9,37.6-40.9,38.1C200.3,126.7,183.8,157.8,175.9,172.6z"/>
<linearGradient id="path3400_1_" gradientUnits="userSpaceOnUse" x1="155.4438" y1="116.896" x2="309.0147" y2="274.8098" gradientTransform="matrix(1 0 0 -1 0 344)">
	<stop  offset="0" style="stop-color:#BD0012"/>
	<stop  offset="0" style="stop-color:#BD0012"/>
	<stop  offset="7.000000e-02" style="stop-color:#FFFFFF"/>
	<stop  offset="0.17" style="stop-color:#FFFFFF"/>
	<stop  offset="0.27" style="stop-color:#C82F1C"/>
	<stop  offset="0.33" style="stop-color:#820C01"/>
	<stop  offset="0.46" style="stop-color:#A31601"/>
	<stop  offset="0.72" style="stop-color:#B31301"/>
	<stop  offset="0.99" style="stop-color:#E82609"/>
	<stop  offset="1" style="stop-color:#E82609"/>
</linearGradient>
<path id="path3400" inkscape:connector-curvature="0" class="st9" d="M216.3,114.1c29.4-29.2,67.4-46.4,81.9-31.7
	c14.6,14.7-0.9,50.4-30.3,79.6c-29.4,29.2-66.9,47.4-81.4,32.7C171.9,179.9,186.9,143.2,216.3,114.1z"/>
<linearGradient id="path3413_1_" gradientUnits="userSpaceOnUse" x1="273.0749" y1="100.9676" x2="226.8179" y2="112.3843" gradientTransform="matrix(1 0 0 -1 0 344)">
	<stop  offset="0" style="stop-color:#8C0C01"/>
	<stop  offset="0" style="stop-color:#8C0C01"/>
	<stop  offset="0.54" style="stop-color:#990C00"/>
	<stop  offset="0.99" style="stop-color:#A80D0E"/>
	<stop  offset="1" style="stop-color:#A80D0E"/>
</linearGradient>
<path id="path3413" inkscape:connector-curvature="0" class="st10" d="M215,269.4l22.9-75.7l75.9,24.4
	C286.3,243.8,255.8,265.5,215,269.4z"/>
<linearGradient id="path3424_1_" gradientUnits="userSpaceOnUse" x1="352.5258" y1="156.4854" x2="311.4326" y2="193.316" gradientTransform="matrix(1 0 0 -1 0 344)">
	<stop  offset="0" style="stop-color:#7E110B"/>
	<stop  offset="0" style="stop-color:#7E110B"/>
	<stop  offset="0.99" style="stop-color:#9E0C00"/>
	<stop  offset="1" style="stop-color:#9E0C00"/>
</linearGradient>
<path id="path3424" inkscape:connector-curvature="0" class="st11" d="M294.6,140.9l19.5,77.2c22.9-24.1,43.5-50,53.6-82.1
	C367.6,136,294.6,140.9,294.6,140.9z"/>
<linearGradient id="path3435_1_" gradientUnits="userSpaceOnUse" x1="367.623" y1="224.0625" x2="347.1537" y2="245.9458" gradientTransform="matrix(1 0 0 -1 0 344)">
	<stop  offset="0" style="stop-color:#79130D"/>
	<stop  offset="0" style="stop-color:#79130D"/>
	<stop  offset="0.99" style="stop-color:#9E120B"/>
	<stop  offset="1" style="stop-color:#9E120B"/>
</linearGradient>
<path id="path3435" inkscape:connector-curvature="0" class="st12" d="M367.4,136.4c7.8-23.5,9.6-57.3-27.2-63.6l-30.2,16.7
	L367.4,136.4z"/>
<path id="path3437" inkscape:connector-curvature="0" class="st13" d="M174,229.8c1.1,38.9,29.1,39.4,41.1,39.8l-27.6-64.4
	L174,229.8z"/>
<radialGradient id="path3448_1_" cx="317.8315" cy="192.6118" r="50.3576" gradientTransform="matrix(1 0 0 -1 0 344)" gradientUnits="userSpaceOnUse">
	<stop  offset="0" style="stop-color:#A80D00"/>
	<stop  offset="0" style="stop-color:#A80D00"/>
	<stop  offset="0.99" style="stop-color:#7E0E08"/>
	<stop  offset="1" style="stop-color:#7E0E08"/>
</radialGradient>
<path id="path3448" inkscape:connector-curvature="0" class="st14" d="M294.7,141c17.6,10.8,53.1,32.6,53.9,33
	c1.1,0.6,15.3-23.9,18.5-37.8C367,136.2,294.7,141,294.7,141z"/>
<radialGradient id="path3459_1_" cx="248.0923" cy="126.249" r="66.9437" gradientTransform="matrix(1 0 0 -1 0 344)" gradientUnits="userSpaceOnUse">
	<stop  offset="0" style="stop-color:#A30C00"/>
	<stop  offset="0" style="stop-color:#A30C00"/>
	<stop  offset="0.99" style="stop-color:#800E08"/>
	<stop  offset="1" style="stop-color:#800E08"/>
</radialGradient>
<path id="path3459" inkscape:connector-curvature="0" class="st15" d="M237.8,193.7l30.6,59c18.1-9.8,32.2-21.7,45.2-34.5
	L237.8,193.7z"/>
<linearGradient id="path3472_1_" gradientUnits="userSpaceOnUse" x1="200.6702" y1="74.6642" x2="183.989" y2="131.2581" gradientTransform="matrix(1 0 0 -1 0 344)">
	<stop  offset="0" style="stop-color:#8B2114"/>
	<stop  offset="0" style="stop-color:#8B2114"/>
	<stop  offset="0.43" style="stop-color:#9E100A"/>
	<stop  offset="0.99" style="stop-color:#B3100C"/>
	<stop  offset="1" style="stop-color:#B3100C"/>
</linearGradient>
<path id="path3472" inkscape:connector-curvature="0" class="st16" d="M187.4,205.2l-4.3,51.6c8.2,11.2,19.4,12.1,31.2,11.3
	C205.7,246.8,188.6,204.3,187.4,205.2z"/>
<linearGradient id="path3485_1_" gradientUnits="userSpaceOnUse" x1="328.6411" y1="262.2022" x2="366.0391" y2="245.6942" gradientTransform="matrix(1 0 0 -1 0 344)">
	<stop  offset="0" style="stop-color:#B31000"/>
	<stop  offset="0" style="stop-color:#B31000"/>
	<stop  offset="0.44" style="stop-color:#910F08"/>
	<stop  offset="0.99" style="stop-color:#791C12"/>
	<stop  offset="1" style="stop-color:#791C12"/>
</linearGradient>
<path id="path3485" inkscape:connector-curvature="0" class="st17" d="M309.9,89.6l60.7,8.5c-3.2-13.7-13.2-22.6-30.1-25.4
	L309.9,89.6z"/>
</svg>
