<svg viewBox="0 0 1490.02 216.43" xmlns="http://www.w3.org/2000/svg"><path d="m270.35 51.81-.32-51.81-162.28 165.2.16 50.83z" fill="#ff495c"/><g fill="#f5f4f3"><path d="m270 0v52.15l57.58 56.43-55.86 56.42-163.99-164.28-107.73 107.86 107.91 107.46.05-51.05-56.4-56.42 56.44-56.43 164.29 164.29 107.33-108.22z"/><path d="m494.35 55.63h28.34v82.06h45v23.82h-73.34z"/><path d="m854.18 143.45 20.56-15.45c5.14 6.38 11.52 11.52 22.11 11.52 8.41 0 13.39-2.49 13.39-8.41 0-4.52-3.42-6.7-10.43-9l-12.46-4.2c-15.41-5.14-26.35-14.48-26.35-31.91 0-20.86 17.28-31.61 36.12-31.61 18.69 0 29 6.7 35.19 14l-16.19 17c-4.36-4.51-9-7.63-17.44-7.63-6.85 0-10.28 3.12-10.28 7.32 0 4 2.34 6.07 7.47 7.78l14 4.67c21.18 7 28.34 17.13 28.34 32.08 0 19.46-12.15 33.48-40.17 33.48-23.77-.02-37.32-10.92-43.86-19.64z"/><path d="m1054.28 161.51h-27.72l51.54-107.75c.47-1.09 1.4-1.09 1.87 0l51.39 107.75h-29.27l-4-9h-39.86zm23.51-54.81-10.59 24.6h21.49z"/><path d="m1246.65 108.73v52.79h-26.65v-107.29c0-.93.47-1.71 2.18-.31l66.49 54.81v-53.1h26.63v107.44c0 1.25-.47 1.71-2.18.31z"/><path d="m1433.65 79.45h-28v-23.82h84.35v23.82h-28v82.06h-28.34v-82.06z"/><path d="m710.36 54.56a54.47 54.47 0 1 0 54.48 54.44 54.47 54.47 0 0 0 -54.48-54.44zm0 83.33a28.86 28.86 0 1 1 28.86-28.89 28.86 28.86 0 0 1 -28.86 28.89z"/></g></svg>