<svg id="Layer_1" data-name="Layer 1" xmlns="http://www.w3.org/2000/svg" viewBox="0 0 1490.02 216.43"><defs><style>.cls-1{fill:#ff495c;}.cls-2{fill:#f5f4f3;}</style></defs><title>losant-logo-horiz-01-04</title><polygon class="cls-1" points="270.35 51.81 270.03 0 107.75 165.2 107.91 216.03 270.35 51.81"/><polygon class="cls-2" points="270 0 270 52.15 327.58 108.58 271.72 165 107.73 0.72 0 108.58 107.91 216.04 107.96 164.99 51.56 108.57 108 52.14 272.29 216.43 379.62 108.21 270 0"/><path class="cls-2" d="M494.35,55.63h28.34v82.06h45v23.82H494.35V55.63Z"/><path class="cls-2" d="M854.18,143.45L874.74,128c5.14,6.38,11.52,11.52,22.11,11.52,8.41,0,13.39-2.49,13.39-8.41,0-4.52-3.42-6.7-10.43-9l-12.46-4.2C871.94,112.77,861,103.43,861,86c0-20.86,17.28-31.61,36.12-31.61,18.69,0,29,6.7,35.19,14l-16.19,17c-4.36-4.51-9-7.63-17.44-7.63-6.85,0-10.28,3.12-10.28,7.32,0,4,2.34,6.07,7.47,7.78l14,4.67c21.18,7,28.34,17.13,28.34,32.08,0,19.46-12.15,33.48-40.17,33.48C874.27,163.07,860.72,152.17,854.18,143.45Z"/><path class="cls-2" d="M1054.28,161.51h-27.72L1078.1,53.76c0.47-1.09,1.4-1.09,1.87,0l51.39,107.75h-29.27l-4-9h-39.86Zm23.51-54.81-10.59,24.6h21.49Z"/><path class="cls-2" d="M1246.65,108.73v52.79H1220V54.23c0-.93.47-1.71,2.18-0.31l66.49,54.81V55.63h26.63V163.07c0,1.25-.47,1.71-2.18.31Z"/><path class="cls-2" d="M1433.65,79.45h-28V55.63H1490V79.45h-28v82.06h-28.34V79.45Z"/><path class="cls-2" d="M710.36,54.56A54.47,54.47,0,1,0,764.84,109,54.47,54.47,0,0,0,710.36,54.56Zm0,83.33A28.86,28.86,0,1,1,739.22,109,28.86,28.86,0,0,1,710.36,137.89Z"/></svg>