<svg xmlns="http://www.w3.org/2000/svg" viewBox="0 0 118.92 118.92"><defs><style>.cls-1{fill:#ff495c;}.cls-2{fill:#f5f4f3;}</style></defs><title>dashboard-icon</title><g id="Layer_2" data-name="Layer 2"><g id="Layer_1-2" data-name="Layer 1"><circle class="cls-1" cx="59.46" cy="59.46" r="59.46"/><path class="cls-2" d="M36.91,39.77a2.46,2.46,0,1,1,2.46-2.46A2.47,2.47,0,0,1,36.91,39.77Zm0-3.24a.78.78,0,1,0,.78.78A.78.78,0,0,0,36.91,36.53Z"/><path class="cls-2" d="M44.29,39.77a2.46,2.46,0,1,1,2.46-2.46A2.47,2.47,0,0,1,44.29,39.77Zm0-3.24a.78.78,0,1,0,.78.78A.78.78,0,0,0,44.29,36.53Z"/><path class="cls-2" d="M51.67,39.77a2.46,2.46,0,1,1,2.46-2.46A2.47,2.47,0,0,1,51.67,39.77Zm0-3.24a.78.78,0,1,0,.78.78A.78.78,0,0,0,51.67,36.53Z"/><path class="cls-2" d="M89.68,89.62H29.24V29.18H89.68Zm-57.2-3.24h54v-54h-54Z"/><rect class="cls-2" x="30.86" y="41.95" width="57.2" height="3.24"/><rect class="cls-2" x="30.86" y="86.5" width="57.2" height="3.24"/><path class="cls-2" d="M55.71,82.49H37.06V47.89H55.71ZM40.3,79.25H52.47V51.13H40.3Z"/><path class="cls-2" d="M81,82.49H60.56V72.1H81ZM63.8,79.25h14V75.34h-14Z"/><path class="cls-2" d="M70.79,68.11A10.11,10.11,0,1,1,80.91,58,10.13,10.13,0,0,1,70.79,68.11Zm0-17A6.87,6.87,0,1,0,77.67,58,6.88,6.88,0,0,0,70.79,51.13Z"/><path class="cls-2" d="M64.63,64l.19.21a8.49,8.49,0,1,0,12-12L76.62,52Z"/><rect class="cls-2" x="38.69" y="57.85" width="14.92" height="3.24"/><rect class="cls-2" x="38.69" y="68.18" width="14.92" height="3.24"/></g></g></svg>