<svg viewBox="0 0 118.92 118.92" xmlns="http://www.w3.org/2000/svg"><circle cx="59.46" cy="59.46" fill="#ff495c" r="59.46"/><g fill="#f5f4f3"><path d="m36.91 39.77a2.46 2.46 0 1 1 2.46-2.46 2.47 2.47 0 0 1 -2.46 2.46zm0-3.24a.78.78 0 1 0 .78.78.78.78 0 0 0 -.78-.78z"/><path d="m44.29 39.77a2.46 2.46 0 1 1 2.46-2.46 2.47 2.47 0 0 1 -2.46 2.46zm0-3.24a.78.78 0 1 0 .78.78.78.78 0 0 0 -.78-.78z"/><path d="m51.67 39.77a2.46 2.46 0 1 1 2.46-2.46 2.47 2.47 0 0 1 -2.46 2.46zm0-3.24a.78.78 0 1 0 .78.78.78.78 0 0 0 -.78-.78z"/><path d="m89.68 89.62h-60.44v-60.44h60.44zm-57.2-3.24h54v-54h-54z"/><path d="m30.86 41.95h57.2v3.24h-57.2z"/><path d="m30.86 86.5h57.2v3.24h-57.2z"/><path d="m55.71 82.49h-18.65v-34.6h18.65zm-15.41-3.24h12.17v-28.12h-12.17z"/><path d="m81 82.49h-20.44v-10.39h20.44zm-17.2-3.24h14v-3.91h-14z"/><path d="m70.79 68.11a10.11 10.11 0 1 1 10.12-10.11 10.13 10.13 0 0 1 -10.12 10.11zm0-17a6.87 6.87 0 1 0 6.88 6.89 6.88 6.88 0 0 0 -6.88-6.87z"/><path d="m64.63 64 .19.21a8.49 8.49 0 1 0 12-12l-.2-.21z"/><path d="m38.69 57.85h14.92v3.24h-14.92z"/><path d="m38.69 68.18h14.92v3.24h-14.92z"/></g></svg>