<svg xmlns="http://www.w3.org/2000/svg" viewBox="0 0 634.66 634.66"><defs><style>.cls-1{fill:#ff495c;}.cls-2{fill:#fff;}</style></defs><title>edge-compute-icon</title><g id="Layer_2" data-name="Layer 2"><g id="Layer_1-2" data-name="Layer 1"><g id="Layer_2-2" data-name="Layer 2"><g id="Layer_1-2-2" data-name="Layer 1-2"><circle class="cls-1" cx="317.33" cy="317.33" r="317.33"/></g></g><g id="Layer_2-3" data-name="Layer 2"><g id="Layer_5" data-name="Layer 5"><path class="cls-2" d="M317.75,555.08A237.17,237.17,0,0,0,555.08,317.75c0-132-107-238.17-238.17-238.17A237.17,237.17,0,0,0,79.58,316.91c0,131.2,106.13,238.17,238.17,238.17Zm0-448.76c116.16,0,211.43,94.43,211.43,210.59S433.91,528.34,317.75,528.34,106.32,433.91,106.32,316.91h0C106.32,200.75,200.75,106.32,317.75,106.32Z"/><path class="cls-2" d="M132.23,209.11H501.6L317.75,529.17Zm325.91,26.74H176.52l140.39,244Z"/></g></g></g></g></svg>