<svg viewBox="0 0 634.66 634.66" xmlns="http://www.w3.org/2000/svg"><circle cx="317.33" cy="317.33" fill="#ff495c" r="317.33"/><g fill="#fff"><path d="m317.75 555.08a237.17 237.17 0 0 0 237.33-237.33c0-132-107-238.17-238.17-238.17a237.17 237.17 0 0 0 -237.33 237.33c0 131.2 106.13 238.17 238.17 238.17zm0-448.76c116.16 0 211.43 94.43 211.43 210.59s-95.27 211.43-211.43 211.43-211.43-94.43-211.43-211.43c0-116.16 94.43-210.59 211.43-210.59z"/><path d="m132.23 209.11h369.37l-183.85 320.06zm325.91 26.74h-281.62l140.39 244z"/></g></svg>