<svg viewBox="0 0 118.92 118.92" xmlns="http://www.w3.org/2000/svg"><circle cx="59.46" cy="59.46" fill="#ff495c" r="59.46"/><path d="m77.22 33-17.91 19.6-18.71-18.75-25.72 25.75 26.44 26.33 18-19.62 18.6 18.55.49.49 25.59-25.84zm0 13.88 12.92 12.73-11.86 12-12.37-12.41zm-35.88 25.4-12.67-12.68 12-12 12.13 12.13zm37.07 11.13-18.11-18.11-6.58-6.58-13.05-13.05-13.94 13.93 13.27 13.24v9.8l-23.14-23 23.74-23.85 17.79 17.82 6.61 6.6 13.3 13.32 13.8-13.94-13.53-13.24v-10.06l23.53 23.23z" fill="#f5f4f3"/></svg>