<svg xmlns="http://www.w3.org/2000/svg" viewBox="0 0 118.92 118.92"><defs><style>.cls-1{fill:#ff495c;}.cls-2{fill:#f5f4f3;}</style></defs><title>losant-icon</title><g id="Layer_2" data-name="Layer 2"><g id="Layer_1-2" data-name="Layer 1"><circle class="cls-1" cx="59.46" cy="59.46" r="59.46"/><path class="cls-2" d="M77.22,33V33L59.31,52.6,40.6,33.85,14.88,59.6,41.32,85.93h0l18-19.62L77.92,84.86l.49.49L104,59.51Zm0,13.88h0L90.14,59.61l-11.86,12L65.91,59.2ZM41.34,72.28h0L28.67,59.6l12-12L52.8,59.73ZM78.41,83.41,60.3,65.3l-6.58-6.58L40.67,45.67,26.73,59.6,40,72.84v9.8l-23.14-23L40.6,35.79,58.39,53.61,65,60.21l13.3,13.32,13.8-13.94L78.57,46.35V36.29L102.1,59.52Z"/></g></g></svg>