<svg xmlns="http://www.w3.org/2000/svg" viewBox="0 0 634.66 634.66"><defs><style>.cls-1{fill:#f04d5e;}.cls-2{fill:#fff;}</style></defs><title>sign-up</title><g id="Layer_2" data-name="Layer 2"><g id="Layer_1-2" data-name="Layer 1"><circle class="cls-1" cx="317.33" cy="317.33" r="317.33"/><path class="cls-2" d="M251.82,286.5a72.35,72.35,0,1,1,72.35-72.35A72.43,72.43,0,0,1,251.82,286.5Zm0-115.38a43,43,0,1,0,43,43A43.08,43.08,0,0,0,251.82,171.12Z"/><path class="cls-2" d="M354.14,492.86H149.51V395.09A91.21,91.21,0,0,1,240.62,304H263a91.21,91.21,0,0,1,91.11,91.11ZM178.83,463.54h146V395.09A61.86,61.86,0,0,0,263,333.3H240.62a61.86,61.86,0,0,0-61.79,61.79Z"/><polygon class="cls-2" points="435.64 376.24 408.23 376.19 407.79 185.38 435.2 185.43 435.64 376.24"/><polygon class="cls-2" points="326.28 294.73 326.33 267.32 517.14 266.88 517.09 294.29 326.28 294.73"/></g></g></svg>