<svg viewBox="0 0 634.66 634.66" xmlns="http://www.w3.org/2000/svg"><circle cx="317.33" cy="317.33" fill="#ff495c" r="317.33"/><g fill="#fff"><path d="m251.82 286.5a72.35 72.35 0 1 1 72.35-72.35 72.43 72.43 0 0 1 -72.35 72.35zm0-115.38a43 43 0 1 0 43 43 43.08 43.08 0 0 0 -43-43z"/><path d="m354.14 492.86h-204.63v-97.77a91.21 91.21 0 0 1 91.11-91.09h22.38a91.21 91.21 0 0 1 91.11 91.11zm-175.31-29.32h146v-68.45a61.86 61.86 0 0 0 -61.83-61.79h-22.38a61.86 61.86 0 0 0 -61.79 61.79z"/><path d="m435.64 376.24-27.41-.05-.44-190.81 27.41.05z"/><path d="m326.28 294.73.05-27.41 190.81-.44-.05 27.41z"/></g></svg>