<svg viewBox="0 0 118.92 118.92" xmlns="http://www.w3.org/2000/svg"><circle cx="59.46" cy="59.46" fill="#ff495c" r="59.46"/><g fill="#f5f4f3"><path d="m29.54 88.4h59.9v3.73h-59.9z"/><path d="m89.7 85.78h-60.48l-.29-45.33 16.47 17.23 14.06-23 14 23 16.48-17.23zm-57-3.5h53.52l.17-33-13.51 14.11-13.42-22-13.46 21.99-13.51-14.15z"/><path d="m59.55 32.47a2.84 2.84 0 1 1 2.84-2.84 2.84 2.84 0 0 1 -2.84 2.84zm0-3.73a.89.89 0 1 0 .89.89.89.89 0 0 0 -.89-.89z"/><path d="m89.44 38.56a2.84 2.84 0 1 1 2.84-2.84 2.84 2.84 0 0 1 -2.84 2.84zm0-3.73a.89.89 0 1 0 .89.89.89.89 0 0 0 -.89-.89z"/><path d="m29.48 38.56a2.84 2.84 0 1 1 2.84-2.84 2.84 2.84 0 0 1 -2.84 2.84zm0-3.73a.89.89 0 1 0 .89.89.89.89 0 0 0 -.89-.89z"/></g></svg>