<svg viewBox="0 0 118.92 118.92" xmlns="http://www.w3.org/2000/svg"><circle cx="59.46" cy="59.46" fill="#ff495c" r="59.46"/><g fill="#f5f4f3"><path d="m29.38 50.67a10 10 0 1 1 -7.6-.77 10 10 0 0 1 7.6.77zm-7.55 14.06a6 6 0 1 0 -2.89-3.55 5.94 5.94 0 0 0 2.89 3.55z"/><path d="m99 50.67a10 10 0 1 1 -7.6-.77 10 10 0 0 1 7.6.77zm-7.57 14.06a6 6 0 1 0 -2.89-3.55 5.94 5.94 0 0 0 2.89 3.55z"/><path d="m67.28 57.46h18.69v4h-18.69z"/><path d="m32.53 57.46h18.69v4h-18.69z"/><path d="m59.65 49.49a9.91 9.91 0 0 1 7 3.06 10 10 0 1 1 -7-3.06zm-.3 16a6 6 0 0 0 4.42-10.12 6 6 0 1 0 -4.42 10.12z"/><path d="m73.39 33a29.85 29.85 0 0 1 15.51 21.44 7 7 0 0 1 3.37-2.21 33.6 33.6 0 0 0 -65.71.39 7.5 7.5 0 0 1 3.44 1.93 29.87 29.87 0 0 1 43.39-21.55z"/><path d="m91 65.12a7 7 0 0 1 -1.95-1.53 29.87 29.87 0 0 1 -58.89 1.66 7.61 7.61 0 0 1 -3.37 2 33.6 33.6 0 0 0 65.7-1.61 7 7 0 0 1 -1.49-.52z"/></g></svg>