<svg xmlns="http://www.w3.org/2000/svg" viewBox="0 0 118.92 118.92"><defs><style>.cls-1{fill:#ff495c;}.cls-2{fill:#f5f4f3;}</style></defs><title>walkthrough-icon</title><g id="Layer_2" data-name="Layer 2"><g id="Layer_1-2" data-name="Layer 1"><circle class="cls-1" cx="59.46" cy="59.46" r="59.46"/><path class="cls-2" d="M29.38,50.67a10,10,0,1,1-7.6-.77h0A10,10,0,0,1,29.38,50.67ZM21.83,64.73a6,6,0,1,0-2.89-3.55A5.94,5.94,0,0,0,21.83,64.73Z"/><path class="cls-2" d="M99,50.67a10,10,0,1,1-7.6-.77h0A10,10,0,0,1,99,50.67ZM91.43,64.73a6,6,0,1,0-2.89-3.55A5.94,5.94,0,0,0,91.43,64.73Z"/><rect class="cls-2" x="67.28" y="57.46" width="18.69" height="4"/><rect class="cls-2" x="32.53" y="57.46" width="18.69" height="4"/><path class="cls-2" d="M59.65,49.49a9.91,9.91,0,0,1,7,3.06h0a10,10,0,1,1-7-3.06Zm-.3,16a6,6,0,0,0,4.42-10.12h0a6,6,0,1,0-4.42,10.12Z"/><path class="cls-2" d="M73.39,33A29.85,29.85,0,0,1,88.9,54.44a7,7,0,0,1,3.37-2.21,33.6,33.6,0,0,0-65.71.39A7.5,7.5,0,0,1,30,54.55,29.87,29.87,0,0,1,73.39,33Z"/><path class="cls-2" d="M91,65.12a7,7,0,0,1-1.95-1.53,29.87,29.87,0,0,1-58.89,1.66,7.61,7.61,0,0,1-3.37,2,33.6,33.6,0,0,0,65.7-1.61A7,7,0,0,1,91,65.12Z"/></g></g></svg>