<svg viewBox="0 0 118.92 118.92" xmlns="http://www.w3.org/2000/svg"><circle cx="59.46" cy="59.46" fill="#ff495c" r="59.46"/><g fill="#f5f4f3"><path d="m78.63 58.55h-3.24c0-4.36-3-5.81-8-7.68-4.31-1.63-9.2-3.47-9.2-9.34h3.24c0 3.45 2.7 4.65 7.1 6.31s10.1 3.8 10.1 10.71z"/><path d="m47.23 75.24h-3.23c0-14.89 5-20.32 9-24.68 2.55-2.78 4.39-4.8 4.39-8.72h3.24c0 5.18-2.54 8-5.24 10.91-3.85 4.15-8.16 8.85-8.16 22.49z"/><path d="m77.39 42.69h-33.71v-14.63h33.71zm-30.47-3.24h27.23v-8.15h-27.23z"/><path d="m94 71.32h-33.7v-14.63h33.7zm-30.46-3.24h27.24v-8.15h-27.24z"/><path d="m62.62 88.86h-33.72v-14.63h33.72zm-30.48-3.24h27.24v-8.15h-27.24z"/></g></svg>